<svg xmlns="http://www.w3.org/2000/svg" viewBox="0 0 3046.65 797.81"><defs><style>.cls-1{fill:#007acc;}.cls-2{fill:#001020;}</style></defs><polygon class="cls-1" points="380 570 0 570 185.2 0 565.2 0 380 570"/><polygon class="cls-2" points="744.58 570 475.83 570 586.92 228.12 855.67 228.12 829.67 308.12 640.93 308.12 581.83 490 770.58 490 744.58 570"/><polygon class="cls-2" points="855.92 570 775.92 570 887.01 228.12 967.01 228.12 855.92 570"/><polygon class="cls-2" points="1331.55 570 951.89 570 977.89 490 1277.55 490 1294.09 439.09 994.43 439.09 1062.98 228.12 1442.64 228.12 1416.64 308.12 1116.99 308.12 1100.42 359.09 1400.08 359.09 1331.55 570"/><polygon class="cls-2" points="1433.9 797.81 1353.9 797.81 1539.01 228.12 1619.01 228.12 1433.9 797.81"/><polygon class="cls-2" points="1807.73 570 1538.72 570 1564.72 490 1753.73 490 1812.83 308.12 1623.82 308.12 1649.81 228.12 1918.82 228.12 1807.73 570"/><polygon class="cls-2" points="1983.83 570 1903.83 570 2014.91 228.12 2094.91 228.12 1983.83 570"/><polygon class="cls-1" points="2104.69 198.03 2024.69 198.03 2065.63 72.03 2145.63 72.03 2104.69 198.03"/><polygon class="cls-2" points="2349.42 570 2079.69 570 2190.78 228.12 2460.5 228.12 2434.51 308.12 2244.78 308.12 2185.69 490 2375.41 490 2349.42 570"/><polygon class="cls-2" points="2460.31 570 2380.31 570 2565.49 0.06 2645.49 0.06 2460.31 570"/><polygon class="cls-2" points="2825.05 570 2555.88 570 2666.97 228.12 2936.13 228.12 2910.14 308.12 2720.97 308.12 2661.87 490 2851.04 490 2825.05 570"/><polygon class="cls-2" points="2935.56 570 2855.56 570 2966.65 228.12 3046.65 228.12 2935.56 570"/></svg>