<svg xmlns="http://www.w3.org/2000/svg" viewBox="0 0 3998.65 797.81"><defs><style>.cls-1{fill:#cc007a;}.cls-2{fill:#fff;}</style></defs><polygon class="cls-2" points="1983.31 570 1903.31 570 2088.49 0.06 2168.49 0.06 1983.31 570"/><polygon class="cls-2" points="1215.58 570 951.84 570 1062.92 228.12 1326.67 228.12 1300.67 308.12 1116.93 308.12 1057.83 490 1241.58 490 1215.58 570"/><polygon class="cls-2" points="1331.92 570 1251.92 570 1363.01 228.12 1443.01 228.12 1331.92 570"/><polygon class="cls-2" points="481.97 797.81 401.97 797.81 587.08 228.12 667.08 228.12 481.97 797.81"/><polygon class="cls-2" points="855.8 570 592.79 570 618.79 490 801.79 490 860.89 308.12 677.88 308.12 703.88 228.12 966.89 228.12 855.8 570"/><polygon class="cls-2" points="2385.9 797.81 2305.9 797.81 2491.01 228.12 2571.01 228.12 2385.9 797.81"/><polygon class="cls-2" points="2759.73 570 2496.72 570 2522.72 490 2705.73 490 2764.82 308.12 2581.82 308.12 2607.81 228.12 2870.82 228.12 2759.73 570"/><polygon class="cls-2" points="2935.82 570 2855.82 570 2966.91 228.12 3046.91 228.12 2935.82 570"/><polygon class="cls-1" points="3058.8 192.03 2978.8 192.03 3017.8 72.03 3097.8 72.03 3058.8 192.03"/><polygon class="cls-2" points="1919.34 228 1893.34 308 1779.34 308 1805.34 228 1919.34 228"/><polygon class="cls-2" points="1653.17 228 1627.17 308 1513.17 308 1539.17 228 1653.17 228"/><polygon class="cls-2" points="3296.42 570 3031.69 570 3142.78 228.12 3407.5 228.12 3381.51 308.12 3196.78 308.12 3137.69 490 3322.41 490 3296.42 570"/><polygon class="cls-2" points="3412.31 570 3332.31 570 3517.49 0.06 3597.49 0.06 3412.31 570"/><polygon class="cls-2" points="3772.05 570 3507.88 570 3618.97 228.12 3883.13 228.12 3857.14 308.12 3672.97 308.12 3613.87 490 3798.04 490 3772.05 570"/><polygon class="cls-2" points="3887.56 570 3807.56 570 3918.65 228.12 3998.65 228.12 3887.56 570"/><polygon class="cls-1" points="380 570 0 570 185.2 0 565.2 0 380 570"/><polygon class="cls-2" points="1834.06 490.45 1684 490.45 1819.96 72.03 1739.96 72.03 1578.01 570.45 1658.01 570.45 1658.01 570.45 1808.07 570.45 1834.06 490.45"/><polygon class="cls-2" points="2395.08 228.12 2395.08 228.12 2130.52 228.12 2104.52 308.12 2289.09 308.12 2203.85 570.45 2283.85 570.45 2395.08 228.12 2395.08 228.12"/></svg>