<svg xmlns="http://www.w3.org/2000/svg" viewBox="0 0 3998.65 797.81"><defs><style>.cls-1{fill:#cc007a;}.cls-2{fill:#200010;}</style></defs><polygon class="cls-2" points="1983.31 570 1903.31 570 2088.49 0.06 2168.49 0.06 1983.31 570"/><polygon class="cls-2" points="1221.58 570 951.84 570 1062.92 228.12 1332.67 228.12 1306.67 308.12 1116.93 308.12 1057.83 490 1247.58 490 1221.58 570"/><polygon class="cls-2" points="1331.92 570 1251.92 570 1363.01 228.12 1443.01 228.12 1331.92 570"/><polygon class="cls-2" points="481.97 797.81 401.97 797.81 587.08 228.12 667.08 228.12 481.97 797.81"/><polygon class="cls-2" points="855.8 570 586.79 570 612.79 490 801.79 490 860.89 308.12 671.88 308.12 697.88 228.12 966.89 228.12 855.8 570"/><polygon class="cls-2" points="2385.9 797.81 2305.9 797.81 2491.01 228.12 2571.01 228.12 2385.9 797.81"/><polygon class="cls-2" points="2759.73 570 2490.72 570 2516.72 490 2705.73 490 2764.82 308.12 2575.82 308.12 2601.81 228.12 2870.82 228.12 2759.73 570"/><polygon class="cls-2" points="2935.82 570 2855.82 570 2966.91 228.12 3046.91 228.12 2935.82 570"/><polygon class="cls-1" points="3056.86 198.03 2976.86 198.03 3017.8 72.03 3097.8 72.03 3056.86 198.03"/><polygon class="cls-2" points="1919.34 228 1893.34 308 1773.34 308 1799.34 228 1919.34 228"/><polygon class="cls-2" points="1659.17 228 1633.17 308 1513.17 308 1539.17 228 1659.17 228"/><polygon class="cls-2" points="3302.42 570 3031.69 570 3142.78 228.12 3413.5 228.12 3387.51 308.12 3196.78 308.12 3137.69 490 3328.41 490 3302.42 570"/><polygon class="cls-2" points="3412.31 570 3332.31 570 3517.49 0.06 3597.49 0.06 3412.31 570"/><polygon class="cls-2" points="3778.05 570 3507.88 570 3618.97 228.12 3889.13 228.12 3863.14 308.12 3672.97 308.12 3613.87 490 3804.04 490 3778.05 570"/><polygon class="cls-2" points="3887.56 570 3807.56 570 3918.65 228.12 3998.65 228.12 3887.56 570"/><polygon class="cls-1" points="380 570 0 570 185.2 0 565.2 0 380 570"/><polygon class="cls-2" points="1834.06 490.45 1684 490.45 1819.96 72.03 1739.96 72.03 1578.01 570.45 1658.01 570.45 1658.01 570.45 1808.07 570.45 1834.06 490.45"/><polygon class="cls-2" points="2395.08 228.12 2395.08 228.12 2124.52 228.12 2098.52 308.12 2289.09 308.12 2203.85 570.45 2283.85 570.45 2395.08 228.12 2395.08 228.12"/></svg>